<svg width="23" height="22" viewBox="0 0 23 22" fill="none" xmlns="http://www.w3.org/2000/svg">
<g clip-path="url(#clip0_4106_85)">
<path d="M11.1153 0C5.03384 0 0.0867157 4.93376 0.0867157 10.9987C0.0867157 17.0637 5.03384 21.9975 11.1153 21.9975C17.1967 21.9975 22.1438 17.0637 22.1438 10.9987C22.1438 4.93376 17.1992 0 11.1153 0ZM11.1153 19.2409C6.55797 19.2409 2.85329 15.5437 2.85329 11.0013C2.85329 6.45879 6.56049 2.75909 11.1153 2.75909C15.67 2.75909 19.3773 6.45628 19.3773 10.9987C19.3773 15.5412 15.67 19.2384 11.1153 19.2384V19.2409Z" fill="#A7A7A7"/>
<path d="M16.6979 5.65477C16.1181 5.09953 15.1795 5.09953 14.5997 5.65477L11.1152 8.99138L7.63339 5.65477C7.05354 5.09953 6.115 5.09953 5.53515 5.65477C4.9553 6.21001 4.9553 7.10873 5.53515 7.66397L9.01694 11.0006L5.53515 14.3372C4.9553 14.8924 4.9553 15.7911 5.53515 16.3464C5.82373 16.6227 6.204 16.7622 6.58427 16.7622C6.96454 16.7622 7.34482 16.6227 7.63339 16.3464L11.1152 13.0098L14.5997 16.3464C14.8882 16.6227 15.2685 16.7622 15.6488 16.7622C16.0291 16.7622 16.4093 16.6227 16.6979 16.3464C17.2777 15.7911 17.2777 14.8924 16.6979 14.3372L13.2134 11.0006L16.6979 7.66397C17.2777 7.10873 17.2777 6.21001 16.6979 5.65477Z" fill="#A7A7A7"/>
</g>
<defs>
<clipPath id="clip0_4106_85">
<rect width="22.0596" height="22" fill="white" transform="translate(0.0867157)"/>
</clipPath>
</defs>
</svg>
