<svg width="36" height="21" viewBox="0 0 36 21" fill="none" xmlns="http://www.w3.org/2000/svg">
<g clip-path="url(#clip0_4106_39)">
<path d="M17.6141 21.0001C12.5165 21.0001 7.75251 18.5206 4.86645 14.3703C4.57734 13.9563 4.57734 13.4083 4.86645 12.9942C7.75251 8.84388 12.519 6.36441 17.6141 6.36441C22.7092 6.36441 27.4756 8.84388 30.3617 12.9942C30.6508 13.4083 30.6508 13.9563 30.3617 14.3703C27.4756 18.5206 22.7092 21.0001 17.6141 21.0001ZM7.41893 13.681C9.87258 16.7524 13.6235 18.562 17.6165 18.562C21.6096 18.562 25.358 16.7524 27.8117 13.681C25.358 10.6097 21.6071 8.80004 17.6165 8.80004C13.626 8.80004 9.87505 10.6097 7.41893 13.681Z" fill="#A7A7A7"/>
<path d="M17.6141 19.568C13.5024 19.568 10.1592 16.2701 10.1592 12.2197C10.1592 10.7973 10.5719 9.41625 11.3552 8.22766C11.7258 7.6626 12.4918 7.50185 13.0626 7.86719C13.6358 8.23254 13.7989 8.98758 13.4283 9.55265C12.9069 10.3467 12.6302 11.2698 12.6302 12.2197C12.6302 14.9281 14.8664 17.1323 17.6141 17.1323C20.3618 17.1323 22.598 14.9281 22.598 12.2197C22.598 11.1334 22.2471 10.1055 21.5824 9.24576C21.1698 8.70992 21.2735 7.94757 21.8171 7.53838C22.3608 7.13163 23.1342 7.23393 23.5493 7.76977C24.5451 9.05821 25.0714 10.5975 25.0714 12.2197C25.0714 16.2725 21.7257 19.568 17.6165 19.568H17.6141Z" fill="#A7A7A7"/>
<path d="M19.3437 13.1136C18.1626 13.1136 17.2014 12.1661 17.2014 11.0019C17.2014 10.3857 17.4707 9.8352 17.8982 9.44793C17.8043 9.43819 17.7104 9.43332 17.6141 9.43332C16.0549 9.43332 14.7873 10.6828 14.7873 12.2197C14.7873 13.7566 16.0549 15.006 17.6141 15.006C18.9484 15.006 20.0677 14.0878 20.3618 12.8603C20.0578 13.0234 19.7119 13.1136 19.3437 13.1136Z" fill="#A7A7A7"/>
<path d="M17.6141 4.92009C16.9321 4.92009 16.3786 4.37451 16.3786 3.70228V1.21794C16.3786 0.545703 16.9321 0.00012207 17.6141 0.00012207C18.296 0.00012207 18.8495 0.545703 18.8495 1.21794V3.70228C18.8495 4.37451 18.296 4.92009 17.6141 4.92009Z" fill="#A7A7A7"/>
<path d="M3.69028 11.7155C3.47778 11.7155 3.26528 11.6619 3.07007 11.5499L0.680667 10.1762C0.0901104 9.83762 -0.107565 9.09231 0.235896 8.5102C0.579358 7.93052 1.33547 7.73323 1.92602 8.07179L4.31543 9.44548C4.90598 9.78403 5.10366 10.5293 4.7602 11.1115C4.5304 11.4987 4.11775 11.7155 3.69275 11.7155H3.69028Z" fill="#A7A7A7"/>
<path d="M31.5378 11.7155C31.1128 11.7155 30.7002 11.4987 30.4704 11.1115C30.1269 10.5293 30.3246 9.78403 30.9152 9.44548L33.3046 8.07179C33.8951 7.73323 34.6512 7.93052 34.9947 8.5102C35.3382 9.09231 35.1405 9.83762 34.5499 10.1762L32.1605 11.5499C31.9653 11.6619 31.7503 11.7155 31.5403 11.7155H31.5378Z" fill="#A7A7A7"/>
<path d="M9.6329 6.77362C9.21531 6.77362 8.80761 6.56416 8.57534 6.18663L7.14466 3.8533C6.79132 3.27849 6.97911 2.52832 7.56225 2.18002C8.1454 1.83173 8.90645 2.01683 9.25979 2.59164L10.6905 4.92498C11.0438 5.49978 10.856 6.24996 10.2729 6.59825C10.0727 6.7176 9.85282 6.77362 9.63538 6.77362H9.6329Z" fill="#A7A7A7"/>
<path d="M25.5977 6.77362C25.3802 6.77362 25.1603 6.7176 24.9602 6.59825C24.377 6.24996 24.1893 5.50222 24.5426 4.92498L25.9733 2.59164C26.3266 2.01683 27.0852 1.83173 27.6708 2.18002C28.254 2.52832 28.4417 3.27606 28.0884 3.8533L26.6577 6.18663C26.4255 6.56416 26.0178 6.77362 25.6002 6.77362H25.5977Z" fill="#A7A7A7"/>
</g>
<defs>
<clipPath id="clip0_4106_39">
<rect width="35.0949" height="21" fill="white" transform="translate(0.0678711 0.00012207)"/>
</clipPath>
</defs>
</svg>
