<svg width="28" height="26" viewBox="0 0 28 26" fill="none" xmlns="http://www.w3.org/2000/svg">
<g clip-path="url(#clip0_4106_10)">
<path d="M15.0111 25.9691C11.6827 25.9691 8.35733 24.7038 5.82676 22.1703C5.25694 21.6005 5.25694 20.6742 5.82676 20.1044C6.39657 19.5346 7.32289 19.5346 7.89271 20.1044C11.8172 24.0288 18.205 24.0288 22.1323 20.1044C24.0346 18.2021 25.0808 15.6744 25.0808 12.986C25.0808 10.2977 24.0346 7.76707 22.1323 5.86768C18.2079 1.94324 11.8201 1.94324 7.89271 5.86768C6.61281 7.14758 5.69818 8.74891 5.25694 10.4934C5.05823 11.2766 4.26341 11.747 3.48027 11.5483C2.69714 11.3496 2.22667 10.5548 2.42538 9.77167C2.99812 7.51869 4.17574 5.45273 5.82676 3.80172C10.8908 -1.26236 19.1342 -1.26236 24.1983 3.80172C26.6529 6.25632 28.0029 9.51744 28.0029 12.9889C28.0029 16.4605 26.6529 19.7216 24.1983 22.1733C21.7437 24.6249 18.3394 25.972 15.014 25.972L15.0111 25.9691Z" fill="#A7A7A7"/>
<path d="M20.9313 18.3043C20.6566 18.3043 20.382 18.2283 20.1365 18.0676L14.2133 14.2075C13.7984 13.9386 13.55 13.4769 13.55 12.9831V5.36214C13.55 4.55562 14.2045 3.90106 15.0111 3.90106C15.8176 3.90106 16.4721 4.55562 16.4721 5.36214V12.1912L21.732 15.6189C22.407 16.0601 22.5999 16.9631 22.1586 17.641C21.8781 18.0705 21.4106 18.3043 20.9343 18.3043H20.9313Z" fill="#A7A7A7"/>
<path d="M3.14131 12.2087C2.50428 12.2087 1.91985 11.7879 1.73576 11.1451L0.0555214 5.21018C-0.16364 4.43289 0.286371 3.62637 1.06366 3.40721C1.84095 3.18805 2.64746 3.63806 2.86663 4.41535L4.14945 8.94468L8.67877 7.66186C9.45606 7.4427 10.2626 7.89271 10.4817 8.67C10.7009 9.44729 10.2509 10.2538 9.4736 10.473L3.53872 12.1532C3.4043 12.1912 3.2728 12.2087 3.14131 12.2087Z" fill="#A7A7A7"/>
</g>
<defs>
<clipPath id="clip0_4106_10">
<rect width="28" height="25.9691" fill="white"/>
</clipPath>
</defs>
</svg>
